<mxfile host="app.diagrams.net" modified="2022-11-09T11:38:33.220Z" agent="5.0 (Windows NT 10.0; Win64; x64) AppleWebKit/537.36 (KHTML, like Gecko) Chrome/107.0.0.0 Safari/537.36 Edg/107.0.1418.35" etag="2lanBbaf1Lu8TiqwXcAd" version="20.5.3" type="github">
  <diagram id="0xzuT11LnMau0ZuxPNfI" name="Page-1">
    <mxGraphModel dx="990" dy="547" grid="1" gridSize="10" guides="1" tooltips="1" connect="1" arrows="1" fold="1" page="1" pageScale="1" pageWidth="850" pageHeight="1100" math="0" shadow="0">
      <root>
        <mxCell id="0" />
        <mxCell id="1" parent="0" />
        <mxCell id="_r3N53r8lQPrVf9HRN0s-3" value="" style="endArrow=none;html=1;rounded=0;" edge="1" parent="1">
          <mxGeometry width="50" height="50" relative="1" as="geometry">
            <mxPoint x="240" y="160" as="sourcePoint" />
            <mxPoint x="440" y="160" as="targetPoint" />
          </mxGeometry>
        </mxCell>
        <mxCell id="_r3N53r8lQPrVf9HRN0s-4" value="" style="endArrow=none;html=1;rounded=0;" edge="1" parent="1">
          <mxGeometry width="50" height="50" relative="1" as="geometry">
            <mxPoint x="210" y="220" as="sourcePoint" />
            <mxPoint x="240" y="160" as="targetPoint" />
          </mxGeometry>
        </mxCell>
        <mxCell id="_r3N53r8lQPrVf9HRN0s-9" value="&lt;font color=&quot;#66b2ff&quot;&gt;10101&lt;/font&gt;" style="text;html=1;resizable=0;autosize=1;align=center;verticalAlign=middle;points=[];fillColor=none;strokeColor=none;rounded=0;fontSize=24;fontColor=#00FF00;" vertex="1" parent="1">
          <mxGeometry x="130" y="170" width="90" height="40" as="geometry" />
        </mxCell>
        <mxCell id="_r3N53r8lQPrVf9HRN0s-10" value="&lt;div style=&quot;text-align: left;&quot;&gt;&lt;font color=&quot;#000000&quot; style=&quot;font-family: &amp;quot;JetBrains Mono&amp;quot;; background-color: initial;&quot;&gt;10011010&lt;/font&gt;&lt;span style=&quot;font-family: &amp;quot;JetBrains Mono&amp;quot;; background-color: initial;&quot;&gt;0000&lt;/span&gt;&lt;/div&gt;&lt;div style=&quot;text-align: left;&quot;&gt;&lt;font color=&quot;#66b2ff&quot; face=&quot;JetBrains Mono&quot; data-font-src=&quot;https://fonts.googleapis.com/css?family=JetBrains+Mono&quot;&gt;10101&lt;/font&gt;&lt;/div&gt;&lt;div style=&quot;text-align: left;&quot;&gt;&lt;font color=&quot;#000000&quot; face=&quot;JetBrains Mono&quot; data-font-src=&quot;https://fonts.googleapis.com/css?family=JetBrains+Mono&quot;&gt;&amp;nbsp; 11001&lt;/font&gt;&lt;/div&gt;&lt;div style=&quot;text-align: left;&quot;&gt;&lt;font face=&quot;JetBrains Mono&quot; data-font-src=&quot;https://fonts.googleapis.com/css?family=JetBrains+Mono&quot;&gt;&lt;font color=&quot;#000000&quot;&gt;&amp;nbsp; &lt;/font&gt;&lt;font color=&quot;#66b2ff&quot;&gt;10101&lt;/font&gt;&lt;/font&gt;&lt;/div&gt;&lt;div style=&quot;text-align: left;&quot;&gt;&lt;font face=&quot;JetBrains Mono&quot; data-font-src=&quot;https://fonts.googleapis.com/css?family=JetBrains+Mono&quot;&gt;&lt;font color=&quot;#66b2ff&quot;&gt;&amp;nbsp; &amp;nbsp;&lt;/font&gt;&lt;font color=&quot;#000000&quot;&gt;11000&lt;/font&gt;&lt;/font&gt;&lt;/div&gt;&lt;div style=&quot;text-align: left;&quot;&gt;&lt;font color=&quot;#66b2ff&quot; face=&quot;JetBrains Mono&quot; data-font-src=&quot;https://fonts.googleapis.com/css?family=JetBrains+Mono&quot;&gt;&amp;nbsp; &amp;nbsp;10101&lt;/font&gt;&lt;/div&gt;&lt;div style=&quot;text-align: left;&quot;&gt;&lt;font face=&quot;JetBrains Mono&quot; data-font-src=&quot;https://fonts.googleapis.com/css?family=JetBrains+Mono&quot;&gt;&lt;font color=&quot;#66b2ff&quot;&gt;&amp;nbsp; &amp;nbsp; &lt;/font&gt;&lt;font color=&quot;#000000&quot;&gt;1101&lt;/font&gt;0&lt;/font&gt;&lt;/div&gt;&lt;div style=&quot;text-align: left;&quot;&gt;&lt;font color=&quot;#66b2ff&quot; face=&quot;JetBrains Mono&quot; data-font-src=&quot;https://fonts.googleapis.com/css?family=JetBrains+Mono&quot;&gt;&amp;nbsp; &amp;nbsp; 10101&lt;/font&gt;&lt;/div&gt;&lt;div style=&quot;text-align: left;&quot;&gt;&lt;font color=&quot;#66b2ff&quot; face=&quot;JetBrains Mono&quot; data-font-src=&quot;https://fonts.googleapis.com/css?family=JetBrains+Mono&quot;&gt;&amp;nbsp; &amp;nbsp; &amp;nbsp;&lt;/font&gt;&lt;font face=&quot;JetBrains Mono&quot; data-font-src=&quot;https://fonts.googleapis.com/css?family=JetBrains+Mono&quot; color=&quot;#000000&quot;&gt;1111&lt;/font&gt;&lt;font face=&quot;JetBrains Mono&quot; data-font-src=&quot;https://fonts.googleapis.com/css?family=JetBrains+Mono&quot;&gt;0&lt;/font&gt;&lt;/div&gt;&lt;div style=&quot;text-align: left;&quot;&gt;&lt;font color=&quot;#66b2ff&quot; face=&quot;JetBrains Mono&quot; data-font-src=&quot;https://fonts.googleapis.com/css?family=JetBrains+Mono&quot;&gt;&amp;nbsp; &amp;nbsp; &amp;nbsp;10101&lt;/font&gt;&lt;/div&gt;&lt;div style=&quot;text-align: left;&quot;&gt;&lt;font color=&quot;#66b2ff&quot; face=&quot;JetBrains Mono&quot; data-font-src=&quot;https://fonts.googleapis.com/css?family=JetBrains+Mono&quot;&gt;&amp;nbsp; &amp;nbsp; &amp;nbsp; &lt;/font&gt;&lt;font face=&quot;JetBrains Mono&quot; data-font-src=&quot;https://fonts.googleapis.com/css?family=JetBrains+Mono&quot; color=&quot;#000000&quot;&gt;1011&lt;/font&gt;&lt;font face=&quot;JetBrains Mono&quot; data-font-src=&quot;https://fonts.googleapis.com/css?family=JetBrains+Mono&quot;&gt;0&lt;/font&gt;&lt;/div&gt;&lt;div style=&quot;text-align: left;&quot;&gt;&lt;font color=&quot;#66b2ff&quot; face=&quot;JetBrains Mono&quot; data-font-src=&quot;https://fonts.googleapis.com/css?family=JetBrains+Mono&quot;&gt;&amp;nbsp; &amp;nbsp; &amp;nbsp; 10101&lt;/font&gt;&lt;/div&gt;&lt;div style=&quot;text-align: left;&quot;&gt;&lt;font color=&quot;#66b2ff&quot; face=&quot;JetBrains Mono&quot; data-font-src=&quot;https://fonts.googleapis.com/css?family=JetBrains+Mono&quot;&gt;&amp;nbsp; &amp;nbsp; &amp;nbsp; &amp;nbsp; &lt;/font&gt;&lt;font color=&quot;#ff8000&quot;&gt;&lt;font face=&quot;JetBrains Mono&quot; data-font-src=&quot;https://fonts.googleapis.com/css?family=JetBrains+Mono&quot;&gt;0&lt;/font&gt;&lt;font face=&quot;JetBrains Mono&quot; data-font-src=&quot;https://fonts.googleapis.com/css?family=JetBrains+Mono&quot;&gt;11&lt;/font&gt;&lt;font face=&quot;JetBrains Mono&quot; data-font-src=&quot;https://fonts.googleapis.com/css?family=JetBrains+Mono&quot;&gt;0&lt;/font&gt;&lt;/font&gt;&lt;/div&gt;" style="text;html=1;resizable=0;autosize=1;align=center;verticalAlign=middle;points=[];fillColor=none;strokeColor=none;rounded=0;fontSize=24;fontColor=#00FF00;" vertex="1" parent="1">
          <mxGeometry x="230" y="160" width="200" height="400" as="geometry" />
        </mxCell>
        <mxCell id="_r3N53r8lQPrVf9HRN0s-16" value="&lt;font color=&quot;#000000&quot;&gt;10111110&lt;/font&gt;" style="text;html=1;align=center;verticalAlign=middle;resizable=0;points=[];autosize=1;strokeColor=none;fillColor=none;fontSize=24;fontFamily=JetBrains Mono;fontColor=#66B2FF;" vertex="1" parent="1">
          <mxGeometry x="290" y="130" width="140" height="40" as="geometry" />
        </mxCell>
        <mxCell id="_r3N53r8lQPrVf9HRN0s-17" value="" style="endArrow=block;dashed=1;endFill=0;endSize=12;html=1;rounded=0;fontFamily=JetBrains Mono;fontSource=https%3A%2F%2Ffonts.googleapis.com%2Fcss%3Ffamily%3DJetBrains%2BMono;fontSize=24;fontColor=#000000;" edge="1" parent="1">
          <mxGeometry width="160" relative="1" as="geometry">
            <mxPoint x="323" y="191" as="sourcePoint" />
            <mxPoint x="323" y="233" as="targetPoint" />
          </mxGeometry>
        </mxCell>
        <mxCell id="_r3N53r8lQPrVf9HRN0s-18" value="" style="endArrow=block;dashed=1;endFill=0;endSize=12;html=1;rounded=0;fontFamily=JetBrains Mono;fontSource=https%3A%2F%2Ffonts.googleapis.com%2Fcss%3Ffamily%3DJetBrains%2BMono;fontSize=24;fontColor=#000000;" edge="1" parent="1">
          <mxGeometry width="160" relative="1" as="geometry">
            <mxPoint x="338" y="191" as="sourcePoint" />
            <mxPoint x="338" y="233" as="targetPoint" />
          </mxGeometry>
        </mxCell>
        <mxCell id="_r3N53r8lQPrVf9HRN0s-19" value="" style="endArrow=block;dashed=1;endFill=0;endSize=12;html=1;rounded=0;fontFamily=JetBrains Mono;fontSource=https%3A%2F%2Ffonts.googleapis.com%2Fcss%3Ffamily%3DJetBrains%2BMono;fontSize=24;fontColor=#000000;" edge="1" parent="1">
          <mxGeometry width="160" relative="1" as="geometry">
            <mxPoint x="353" y="194" as="sourcePoint" />
            <mxPoint x="353" y="294" as="targetPoint" />
          </mxGeometry>
        </mxCell>
        <mxCell id="_r3N53r8lQPrVf9HRN0s-22" value="" style="endArrow=block;dashed=1;endFill=0;endSize=12;html=1;rounded=0;fontFamily=JetBrains Mono;fontSource=https%3A%2F%2Ffonts.googleapis.com%2Fcss%3Ffamily%3DJetBrains%2BMono;fontSize=24;fontColor=#000000;" edge="1" parent="1">
          <mxGeometry width="160" relative="1" as="geometry">
            <mxPoint x="366" y="191" as="sourcePoint" />
            <mxPoint x="366" y="351" as="targetPoint" />
          </mxGeometry>
        </mxCell>
        <mxCell id="_r3N53r8lQPrVf9HRN0s-23" value="" style="endArrow=block;dashed=1;endFill=0;endSize=12;html=1;rounded=0;fontFamily=JetBrains Mono;fontSource=https%3A%2F%2Ffonts.googleapis.com%2Fcss%3Ffamily%3DJetBrains%2BMono;fontSize=24;fontColor=#000000;" edge="1" parent="1">
          <mxGeometry width="160" relative="1" as="geometry">
            <mxPoint x="381" y="191" as="sourcePoint" />
            <mxPoint x="381" y="411" as="targetPoint" />
          </mxGeometry>
        </mxCell>
        <mxCell id="_r3N53r8lQPrVf9HRN0s-24" value="" style="endArrow=block;dashed=1;endFill=0;endSize=12;html=1;rounded=0;fontFamily=JetBrains Mono;fontSource=https%3A%2F%2Ffonts.googleapis.com%2Fcss%3Ffamily%3DJetBrains%2BMono;fontSize=24;fontColor=#000000;" edge="1" parent="1">
          <mxGeometry width="160" relative="1" as="geometry">
            <mxPoint x="395" y="191" as="sourcePoint" />
            <mxPoint x="395" y="471" as="targetPoint" />
          </mxGeometry>
        </mxCell>
        <mxCell id="_r3N53r8lQPrVf9HRN0s-25" value="" style="endArrow=block;dashed=1;endFill=0;endSize=12;html=1;rounded=0;fontFamily=JetBrains Mono;fontSource=https%3A%2F%2Ffonts.googleapis.com%2Fcss%3Ffamily%3DJetBrains%2BMono;fontSize=24;fontColor=#000000;" edge="1" parent="1">
          <mxGeometry width="160" relative="1" as="geometry">
            <mxPoint x="410" y="190" as="sourcePoint" />
            <mxPoint x="410" y="527" as="targetPoint" />
          </mxGeometry>
        </mxCell>
        <mxCell id="_r3N53r8lQPrVf9HRN0s-26" value="" style="endArrow=none;html=1;rounded=0;fontFamily=JetBrains Mono;fontSource=https%3A%2F%2Ffonts.googleapis.com%2Fcss%3Ffamily%3DJetBrains%2BMono;fontSize=24;fontColor=#000000;" edge="1" parent="1">
          <mxGeometry width="50" height="50" relative="1" as="geometry">
            <mxPoint x="220" y="230" as="sourcePoint" />
            <mxPoint x="320" y="230" as="targetPoint" />
          </mxGeometry>
        </mxCell>
        <mxCell id="_r3N53r8lQPrVf9HRN0s-28" value="⊕" style="text;html=1;resizable=0;autosize=1;align=center;verticalAlign=middle;points=[];fillColor=none;strokeColor=none;rounded=0;fontFamily=JetBrains Mono;fontSource=https%3A%2F%2Ffonts.googleapis.com%2Fcss%3Ffamily%3DJetBrains%2BMono;fontSize=24;fontColor=#FF0000;" vertex="1" parent="1">
          <mxGeometry x="210" y="190" width="40" height="40" as="geometry" />
        </mxCell>
        <mxCell id="_r3N53r8lQPrVf9HRN0s-30" value="" style="endArrow=none;html=1;rounded=0;fontFamily=JetBrains Mono;fontSource=https%3A%2F%2Ffonts.googleapis.com%2Fcss%3Ffamily%3DJetBrains%2BMono;fontSize=24;fontColor=#000000;" edge="1" parent="1">
          <mxGeometry width="50" height="50" relative="1" as="geometry">
            <mxPoint x="247" y="284" as="sourcePoint" />
            <mxPoint x="347" y="284" as="targetPoint" />
          </mxGeometry>
        </mxCell>
        <mxCell id="_r3N53r8lQPrVf9HRN0s-31" value="⊕" style="text;html=1;resizable=0;autosize=1;align=center;verticalAlign=middle;points=[];fillColor=none;strokeColor=none;rounded=0;fontFamily=JetBrains Mono;fontSource=https%3A%2F%2Ffonts.googleapis.com%2Fcss%3Ffamily%3DJetBrains%2BMono;fontSize=24;fontColor=#FF0000;" vertex="1" parent="1">
          <mxGeometry x="236" y="248" width="40" height="40" as="geometry" />
        </mxCell>
        <mxCell id="_r3N53r8lQPrVf9HRN0s-32" value="" style="endArrow=none;html=1;rounded=0;fontFamily=JetBrains Mono;fontSource=https%3A%2F%2Ffonts.googleapis.com%2Fcss%3Ffamily%3DJetBrains%2BMono;fontSize=24;fontColor=#000000;" edge="1" parent="1">
          <mxGeometry width="50" height="50" relative="1" as="geometry">
            <mxPoint x="260.9999999999999" y="347" as="sourcePoint" />
            <mxPoint x="360.9999999999999" y="347" as="targetPoint" />
          </mxGeometry>
        </mxCell>
        <mxCell id="_r3N53r8lQPrVf9HRN0s-33" value="⊕" style="text;html=1;resizable=0;autosize=1;align=center;verticalAlign=middle;points=[];fillColor=none;strokeColor=none;rounded=0;fontFamily=JetBrains Mono;fontSource=https%3A%2F%2Ffonts.googleapis.com%2Fcss%3Ffamily%3DJetBrains%2BMono;fontSize=24;fontColor=#FF0000;" vertex="1" parent="1">
          <mxGeometry x="250" y="310" width="40" height="40" as="geometry" />
        </mxCell>
        <mxCell id="_r3N53r8lQPrVf9HRN0s-34" value="" style="endArrow=none;html=1;rounded=0;fontFamily=JetBrains Mono;fontSource=https%3A%2F%2Ffonts.googleapis.com%2Fcss%3Ffamily%3DJetBrains%2BMono;fontSize=24;fontColor=#000000;" edge="1" parent="1">
          <mxGeometry width="50" height="50" relative="1" as="geometry">
            <mxPoint x="276.9999999999999" y="402" as="sourcePoint" />
            <mxPoint x="376.9999999999999" y="402" as="targetPoint" />
          </mxGeometry>
        </mxCell>
        <mxCell id="_r3N53r8lQPrVf9HRN0s-35" value="⊕" style="text;html=1;resizable=0;autosize=1;align=center;verticalAlign=middle;points=[];fillColor=none;strokeColor=none;rounded=0;fontFamily=JetBrains Mono;fontSource=https%3A%2F%2Ffonts.googleapis.com%2Fcss%3Ffamily%3DJetBrains%2BMono;fontSize=24;fontColor=#FF0000;" vertex="1" parent="1">
          <mxGeometry x="270" y="360" width="40" height="40" as="geometry" />
        </mxCell>
        <mxCell id="_r3N53r8lQPrVf9HRN0s-36" value="" style="endArrow=none;html=1;rounded=0;fontFamily=JetBrains Mono;fontSource=https%3A%2F%2Ffonts.googleapis.com%2Fcss%3Ffamily%3DJetBrains%2BMono;fontSize=24;fontColor=#000000;" edge="1" parent="1">
          <mxGeometry width="50" height="50" relative="1" as="geometry">
            <mxPoint x="291.9999999999999" y="461.9999999999999" as="sourcePoint" />
            <mxPoint x="391.9999999999999" y="461.9999999999999" as="targetPoint" />
          </mxGeometry>
        </mxCell>
        <mxCell id="_r3N53r8lQPrVf9HRN0s-37" value="⊕" style="text;html=1;resizable=0;autosize=1;align=center;verticalAlign=middle;points=[];fillColor=none;strokeColor=none;rounded=0;fontFamily=JetBrains Mono;fontSource=https%3A%2F%2Ffonts.googleapis.com%2Fcss%3Ffamily%3DJetBrains%2BMono;fontSize=24;fontColor=#FF0000;" vertex="1" parent="1">
          <mxGeometry x="280" y="430" width="40" height="40" as="geometry" />
        </mxCell>
        <mxCell id="_r3N53r8lQPrVf9HRN0s-38" value="" style="endArrow=none;html=1;rounded=0;fontFamily=JetBrains Mono;fontSource=https%3A%2F%2Ffonts.googleapis.com%2Fcss%3Ffamily%3DJetBrains%2BMono;fontSize=24;fontColor=#000000;" edge="1" parent="1">
          <mxGeometry width="50" height="50" relative="1" as="geometry">
            <mxPoint x="303" y="520.9999999999999" as="sourcePoint" />
            <mxPoint x="402.9999999999998" y="520.9999999999999" as="targetPoint" />
          </mxGeometry>
        </mxCell>
        <mxCell id="_r3N53r8lQPrVf9HRN0s-39" value="⊕" style="text;html=1;resizable=0;autosize=1;align=center;verticalAlign=middle;points=[];fillColor=none;strokeColor=none;rounded=0;fontFamily=JetBrains Mono;fontSource=https%3A%2F%2Ffonts.googleapis.com%2Fcss%3Ffamily%3DJetBrains%2BMono;fontSize=24;fontColor=#FF0000;" vertex="1" parent="1">
          <mxGeometry x="294" y="486" width="40" height="40" as="geometry" />
        </mxCell>
        <mxCell id="_r3N53r8lQPrVf9HRN0s-42" value="&lt;span style=&quot;color: rgb(0, 0, 0); text-align: left;&quot;&gt;发送数据为：&lt;br&gt;10011010&lt;/span&gt;&lt;span style=&quot;text-align: left;&quot;&gt;&lt;font color=&quot;#ff8000&quot;&gt;0110&lt;/font&gt;&lt;/span&gt;" style="text;html=1;align=center;verticalAlign=middle;resizable=0;points=[];autosize=1;strokeColor=none;fillColor=none;fontSize=24;fontFamily=JetBrains Mono;fontColor=#FF0000;" vertex="1" parent="1">
          <mxGeometry x="80" y="470" width="200" height="70" as="geometry" />
        </mxCell>
        <mxCell id="_r3N53r8lQPrVf9HRN0s-44" value="&lt;font color=&quot;#000000&quot;&gt;&lt;span lang=&quot;EN-US&quot;&gt;G(X)= X&lt;/span&gt;&lt;span&gt;⁴&lt;/span&gt;&lt;span lang=&quot;EN-US&quot;&gt;+X&lt;/span&gt;&lt;span&gt;²&lt;/span&gt;&lt;span lang=&quot;EN-US&quot;&gt;+1&lt;/span&gt;&lt;/font&gt;" style="text;html=1;align=center;verticalAlign=middle;resizable=0;points=[];autosize=1;strokeColor=none;fillColor=none;fontSize=24;fontFamily=JetBrains Mono;fontColor=#FF8000;" vertex="1" parent="1">
          <mxGeometry x="209" y="80" width="210" height="40" as="geometry" />
        </mxCell>
      </root>
    </mxGraphModel>
  </diagram>
</mxfile>
